<svg width="512" height="512" viewBox="0 0 512 512" fill="none" xmlns="http://www.w3.org/2000/svg">
<rect width="512" height="512" rx="50" fill="#051C2C"/>
<path d="M178.761 334.544C178.213 333.885 177.656 333.246 177.129 332.577C172.76 327.056 168.97 321.072 165.871 314.809C165.468 313.995 165.066 313.161 164.683 312.317L135.858 346.399L214.878 425.215V389.763L169.961 344.957L178.771 334.544H178.761Z" fill="#F32735"/>
<path d="M346.479 314.83C343.391 321.082 339.601 327.056 335.232 332.577C334.705 333.246 334.137 333.885 333.6 334.544L342.41 344.957L297.493 389.752V425.205L376.514 346.399L347.688 312.306C347.295 313.161 346.893 314.006 346.49 314.83H346.479Z" fill="#F32735"/>
<path d="M306.045 85.9425L296.77 132.19C287.361 128.863 277.374 127.143 267.252 127.143H245.098C234.977 127.143 225 128.863 215.591 132.19L206.316 85.9425H78.3608L103.489 111.013H185.701L192.425 144.539C165.396 164.676 151.949 198.851 158.662 232.306L169.734 287.545C170.694 292.335 172.047 297.021 173.772 301.563C174.774 304.19 175.889 306.755 177.139 309.258C179.897 314.83 183.212 320.031 186.992 324.811C200.853 342.321 221.054 354.104 243.642 357.328C247.763 357.915 251.977 358.214 256.18 358.214C260.384 358.214 264.598 357.915 268.708 357.328C291.306 354.104 311.498 342.321 325.369 324.811C329.149 320.031 332.464 314.83 335.222 309.258C336.471 306.744 337.587 304.169 338.589 301.553C340.313 297.021 341.666 292.335 342.627 287.545L353.699 232.306C360.412 198.851 346.965 164.676 319.936 144.55L326.66 111.013H408.872L434 85.9425H306.045ZM198.167 173.143L214.31 253.637L193.499 278.244L183.305 227.383C179.349 207.699 185.185 187.645 198.167 173.143ZM265.145 332.505C259.269 333.349 253.103 333.349 247.205 332.505C229.317 329.961 213.546 319.897 203.682 305.076L241.329 260.559L220.59 157.126C228.284 153.892 236.619 152.213 245.098 152.213H267.252C275.732 152.213 284.077 153.892 291.771 157.136L271.032 260.559L308.678 305.076C298.825 319.897 283.044 329.961 265.145 332.505ZM329.056 227.383L318.862 278.244L298.051 253.637L314.194 173.153C327.176 187.655 333.001 207.689 329.056 227.383Z" fill="#F32735"/>
<path d="M193.458 144.539L199.2 173.143L215.343 253.637L194.532 278.244L186.052 288.266C188.872 293.91 193.613 302.593 199.737 310.957L204.715 305.076L242.361 260.559L221.622 157.126L216.624 132.19L207.349 85.9425H79.3937L104.522 111.013H186.734L193.458 144.539Z" fill="#F32735"/>
</svg>
