<svg width="377" height="215" viewBox="0 0 377 215" fill="none" xmlns="http://www.w3.org/2000/svg">
<path d="M160.013 91.3402C159.811 91.098 159.605 90.8634 159.41 90.6174C157.794 88.5889 156.392 86.3902 155.246 84.0893C155.097 83.7903 154.948 83.4838 154.807 83.1735L144.146 95.696L173.372 124.654V111.628L156.759 95.1662L160.017 91.3402H160.013Z" fill="#F32735"/>
<path d="M222.045 84.0969C220.903 86.394 219.501 88.5889 217.885 90.6174C217.69 90.8634 217.48 91.098 217.282 91.3402L220.54 95.1662L203.927 111.625V124.65L233.153 95.696L222.492 83.1697C222.347 83.4838 222.198 83.7941 222.049 84.0969H222.045Z" fill="#F32735"/>
<path d="M207.09 0L203.66 16.992C200.18 15.7696 196.486 15.1376 192.743 15.1376H184.549C180.805 15.1376 177.115 15.7696 173.635 16.992L170.205 0H122.88L132.174 9.21123H162.58L165.067 21.5295C155.07 28.928 150.097 41.4846 152.58 53.7763L156.675 74.0721C157.03 75.8318 157.531 77.5537 158.168 79.2226C158.539 80.1877 158.952 81.13 159.414 82.0496C160.434 84.097 161.66 86.0081 163.058 87.764C168.184 94.1975 175.656 98.5269 184.01 99.7114C185.534 99.9271 187.093 100.037 188.648 100.037C190.202 100.037 191.761 99.9271 193.281 99.7114C201.639 98.5269 209.107 94.1975 214.237 87.764C215.635 86.0081 216.862 84.097 217.881 82.0496C218.344 81.1262 218.756 80.1801 219.127 79.2189C219.765 77.5537 220.265 75.8318 220.62 74.0721L224.715 53.7763C227.198 41.4846 222.225 28.928 212.228 21.5332L214.715 9.21123H245.121L254.415 0H207.09ZM167.191 32.0387L173.162 61.6138L165.465 70.6548L161.694 51.9674C160.231 44.7354 162.389 37.3672 167.191 32.0387ZM191.963 90.591C189.79 90.9013 187.509 90.9013 185.328 90.591C178.712 89.6562 172.879 85.9589 169.231 80.5131L183.155 64.1569L175.484 26.154C178.33 24.9657 181.413 24.3488 184.549 24.3488H192.743C195.879 24.3488 198.965 24.9657 201.811 26.1578L194.141 64.1569L208.064 80.5131C204.42 85.9589 198.583 89.6562 191.963 90.591ZM215.601 51.9674L211.831 70.6548L204.134 61.6138L210.104 32.0425C214.906 37.371 217.06 44.7316 215.601 51.9674Z" fill="#F32735"/>
<path d="M212.61 21.5332C211.724 20.8785 210.795 20.2617 209.829 19.6902C207.992 18.5965 206.051 17.6958 204.042 16.9919C200.562 15.7696 196.868 15.1376 193.124 15.1376H184.931C181.187 15.1376 177.497 15.7696 174.017 16.9919C172.008 17.6958 170.071 18.5965 168.234 19.6826C167.267 20.2541 166.339 20.8747 165.449 21.5294C155.452 28.9279 150.479 41.4846 152.962 53.7763L157.057 74.072C157.412 75.8318 157.912 77.5537 158.55 79.2226C158.921 80.1876 159.333 81.13 159.796 82.0496C160.816 84.0969 162.042 86.008 163.44 87.764C168.566 94.1975 176.038 98.5268 184.392 99.7114C185.916 99.9271 187.475 100.037 189.029 100.037C190.584 100.037 192.143 99.9271 193.663 99.7114C202.021 98.5268 209.489 94.1975 214.619 87.764C216.017 86.008 217.243 84.0969 218.263 82.0496C218.726 81.1262 219.138 80.1801 219.509 79.2188C220.147 77.5537 220.647 75.8318 221.002 74.072L225.097 53.7763C227.58 41.4846 222.607 28.9279 212.61 21.5332ZM211.888 72.2631C211.487 74.2461 210.826 76.1648 209.928 77.9662C209.489 78.8517 208.992 79.7032 208.446 80.5131C204.802 85.9588 198.965 89.6562 192.345 90.591C190.172 90.9013 187.891 90.9013 185.71 90.591C179.094 89.6562 173.261 85.9588 169.613 80.5131C169.067 79.7032 168.574 78.8517 168.131 77.9662C167.233 76.1686 166.572 74.2499 166.171 72.2631L165.846 70.6547L162.076 51.9674C160.613 44.7354 162.771 37.3671 167.573 32.0387C169.112 30.3206 170.935 28.8106 173.001 27.5883C173.922 27.0433 174.88 26.5627 175.866 26.154C178.712 24.9657 181.795 24.3488 184.931 24.3488H193.124C196.261 24.3488 199.347 24.9657 202.193 26.1577C203.178 26.5702 204.137 27.0471 205.058 27.5958C207.121 28.8182 208.943 30.3244 210.486 32.0425C215.288 37.3709 217.442 44.7316 215.983 51.9674L212.213 70.6547L211.888 72.2631Z" fill="#F32735"/>
<path d="M160.396 91.3402C160.193 91.098 159.987 90.8634 159.792 90.6174C158.176 88.5889 156.774 86.3902 155.628 84.0893C155.479 83.7903 155.33 83.4838 155.189 83.1735L144.528 95.696L173.754 124.654V111.628L157.141 95.1662L160.399 91.3402H160.396Z" fill="#F32735"/>
<path d="M165.449 21.5295L167.573 32.0387L173.544 61.6138L165.847 70.6548L162.71 74.337C163.753 76.4108 165.507 79.6011 167.772 82.674L169.613 80.5131L183.537 64.1569L175.866 26.154L174.017 16.992L170.587 0H123.262L132.556 9.21123H162.963L165.449 21.5295Z" fill="#F32735"/>
<path d="M222.427 84.0969C221.285 86.394 219.883 88.5889 218.267 90.6174C218.073 90.8634 217.862 91.098 217.664 91.3402L220.922 95.1662L204.309 111.625V124.65L233.536 95.696L222.874 83.1697C222.729 83.4838 222.58 83.7941 222.431 84.0969H222.427Z" fill="#F32735"/>
<path d="M0.0804749 194.064L20.113 153.862H33.582L53.5462 194.064H43.0172L38.9833 185.381H14.5067L10.0626 194.064H0.0804749ZM16.968 178.681H36.4536L27.0868 160.016H26.4031L16.968 178.681ZM59.7151 194.064V159.332L59.0313 153.862H68.8767L92.1227 178.202L94.7891 181.894H95.5412V153.862H104.566V194.064H95.8831L72.0901 169.314L69.4237 166.101H68.74V194.064H59.7151ZM129.26 194.064L129.191 160.358H111.415V153.794H156.129V160.358H138.285V194.064H129.26ZM174.817 194.064C171.581 194.064 169.051 193.608 167.228 192.697C165.405 191.785 164.129 190.418 163.399 188.595C162.67 186.771 162.306 184.515 162.306 181.826V166.579C162.306 162.204 163.286 158.99 165.245 156.939C167.205 154.842 170.396 153.794 174.817 153.794H195.397C198.542 153.794 200.935 153.976 202.576 154.341C204.262 154.66 205.105 155.002 205.105 155.366L203.738 161.041C202.963 160.905 200.661 160.768 196.833 160.631C193.049 160.449 187.534 160.358 180.287 160.358H176.8C173.154 160.358 171.33 161.976 171.33 165.212V182.646C171.33 184.196 171.718 185.404 172.493 186.27C173.313 187.09 174.749 187.501 176.8 187.501H179.603C187.17 187.501 193.027 187.432 197.175 187.296C201.368 187.113 203.966 186.931 204.969 186.749L207.772 191.261C207.772 191.489 207.385 191.831 206.61 192.287C205.88 192.742 204.513 193.153 202.507 193.517C200.502 193.882 197.608 194.064 193.824 194.064H174.817ZM209.131 194.064L229.164 153.862H242.633L262.597 194.064H252.068L248.034 185.381H223.558L219.113 194.064H209.131ZM226.019 178.681H245.504L236.138 160.016H235.454L226.019 178.681ZM268.766 194.064V159.332L268.082 153.862H278.475L293.926 181.211L309.925 153.862H319.155V194.064H310.13V168.562H309.378L306.712 174.51L298.097 189.962H289.824L281.209 174.51L278.475 168.562H277.791V194.064H268.766ZM330.793 194.064V159.332L330.11 153.794H360.398C363.315 153.794 365.594 154.181 367.235 154.956C368.921 155.731 370.152 156.757 370.927 158.033C371.747 159.264 372.272 160.585 372.499 161.998C372.727 163.411 372.841 164.756 372.841 166.032V170.066C372.841 171.115 372.682 172.3 372.363 173.621C372.044 174.898 371.451 176.151 370.585 177.382C369.719 178.567 368.466 179.57 366.825 180.39C365.184 181.165 363.042 181.552 360.398 181.552H353.424C350.553 181.552 347.863 181.484 345.356 181.347C342.895 181.211 341.049 181.097 339.818 181.005V194.064H330.793ZM339.818 174.989H358.415C360.466 174.989 361.879 174.487 362.654 173.485C363.429 172.482 363.816 171.274 363.816 169.861V165.554C363.816 164.095 363.429 162.864 362.654 161.862C361.879 160.859 360.489 160.358 358.484 160.358H339.818V174.989Z" fill="white"/>
</svg>
