<?xml version="1.0" encoding="UTF-8"?>
<svg id="Camada_2" data-name="Camada 2" xmlns="http://www.w3.org/2000/svg" viewBox="0 0 1153.71 329.39">
  <defs>
    <style>
      .cls-1 {
        fill: #f32735;
      }

      .cls-2 {
        fill: #051c2c;
      }
    </style>
  </defs>
  <g id="body">
    <g>
      <g>
        <path class="cls-1" d="M233.9,56.9c-2.32-1.73-4.75-3.36-7.28-4.87-4.81-2.89-9.89-5.27-15.15-7.13-9.11-3.23-18.78-4.9-28.58-4.9h-21.45c-9.8,0-19.46,1.67-28.57,4.9-5.26,1.86-10.33,4.24-15.14,7.11-2.53,1.51-4.96,3.15-7.29,4.88-26.17,19.55-39.19,52.73-32.69,85.21l10.72,53.63c.93,4.65,2.24,9.2,3.91,13.61.97,2.55,2.05,5.04,3.26,7.47,2.67,5.41,5.88,10.46,9.54,15.1,13.42,17,32.98,28.44,54.85,31.57,3.99.57,8.07.86,12.14.86s8.15-.29,12.13-.86c21.88-3.13,41.43-14.57,54.86-31.57,3.66-4.64,6.87-9.69,9.54-15.1,1.21-2.44,2.29-4.94,3.26-7.48,1.67-4.4,2.98-8.95,3.91-13.6l10.72-53.63c6.5-32.48-6.52-65.66-32.69-85.2ZM232.01,190.95c-1.05,5.24-2.78,10.31-5.13,15.07-1.15,2.34-2.45,4.59-3.88,6.73-9.54,14.39-24.82,24.16-42.15,26.63-5.69.82-11.66.82-17.37,0-17.32-2.47-32.59-12.24-42.14-26.63-1.43-2.14-2.72-4.39-3.88-6.73-2.35-4.75-4.08-9.82-5.13-15.07l-.85-4.25-9.87-49.38c-3.83-19.11,1.82-38.58,14.39-52.66,4.03-4.54,8.8-8.53,14.21-11.76,2.41-1.44,4.92-2.71,7.5-3.79,7.45-3.14,15.52-4.77,23.73-4.77h21.45c8.21,0,16.29,1.63,23.74,4.78,2.58,1.09,5.09,2.35,7.5,3.8,5.4,3.23,10.17,7.21,14.21,11.75,12.57,14.08,18.21,33.53,14.39,52.65l-9.87,49.38-.85,4.25Z"/>
        <path class="cls-1" d="M97.21,241.36c-.53-.64-1.07-1.26-1.58-1.91-4.23-5.36-7.9-11.17-10.9-17.25-.39-.79-.78-1.6-1.15-2.42l-27.91,33.09,76.51,76.52v-34.42l-43.49-43.5,8.53-10.11Z"/>
        <path class="cls-1" d="M110.44,56.89l5.56,27.77,15.63,78.15-20.15,23.89-8.21,9.73c2.73,5.48,7.32,13.91,13.25,22.03l4.82-5.71,36.45-43.22-20.08-100.42-4.84-24.21L123.89,0H0l24.33,24.34h79.6l6.51,32.55Z"/>
        <path class="cls-1" d="M259.6,222.22c-2.99,6.07-6.66,11.87-10.89,17.23-.51.65-1.06,1.27-1.58,1.91l8.53,10.11-43.49,43.49v34.42l76.51-76.51-27.91-33.1c-.38.83-.77,1.65-1.16,2.45Z"/>
        <path class="cls-1" d="M220.45,0l-8.98,44.9-4.84,24.22-20.08,100.41,36.45,43.22,5.85,6.94c5.45-8.29,9.88-16.84,12.14-23.35l-8.14-9.64-20.15-23.89,15.63-78.14,5.56-27.77,6.51-32.56h79.6L344.34,0h-123.89Z"/>
        <path class="cls-1" d="M374.6,92.13l-56.36,120.02,33.83-17.6,1.2-2.6h69.97l1.24,2.56,34.03,17.67-58.06-120.04h-25.84ZM362.59,171.83l25.16-54.3,25.85,54.3h-51.01Z"/>
        <polygon class="cls-1" points="545.67 154.39 497.7 129.28 478.83 129.28 478.83 215.47 499.22 204.88 499.22 152.09 545.67 176.28 545.67 204.85 566.06 215.44 566.06 129.28 545.67 129.28 545.67 154.39"/>
        <polygon class="cls-1" points="589.48 129.28 589.48 147.65 619.35 147.65 619.35 204.91 639.74 215.5 639.74 147.65 669.62 147.65 669.62 129.28 589.48 129.28"/>
      </g>
      <g>
        <path class="cls-2" d="M729.93,215.47c-6.93,0-12.34-.97-16.24-2.93-3.9-1.95-6.64-4.88-8.19-8.78-1.56-3.9-2.34-8.73-2.34-14.49v-32.63c0-9.37,2.1-16.27,6.29-20.71,4.19-4.44,11.02-6.66,20.49-6.66h44.05c6.73,0,11.88.37,15.44,1.1,3.56.73,5.34,1.49,5.34,2.27l-2.93,12.15c-1.66-.29-6.56-.61-14.71-.95-8.15-.34-19.97-.51-35.49-.51h-7.46c-7.81,0-11.71,3.46-11.71,10.39v37.31c0,3.32.85,5.88,2.56,7.68,1.71,1.81,4.76,2.71,9.15,2.71h6c16.19,0,28.75-.17,37.68-.51,8.93-.34,14.46-.71,16.61-1.1l6,9.66c0,.49-.81,1.22-2.41,2.19-1.61.98-4.56,1.85-8.85,2.63-4.29.78-10.49,1.17-18.58,1.17h-40.68Z"/>
        <path class="cls-2" d="M803.39,215.47l42.87-86.04h28.83l42.73,86.04h-22.54l-8.63-18.58h-52.39l-9.51,18.58h-21.36ZM839.53,182.54h41.7l-20.05-39.95h-1.46l-20.19,39.95Z"/>
        <path class="cls-2" d="M930.99,215.47v-74.34l-1.46-11.71h22.24l33.07,58.53,34.24-58.53h19.75v86.04h-19.32v-54.58h-1.61l-5.71,12.73-18.44,33.07h-17.71l-18.44-33.07-5.85-12.73h-1.46v54.58h-19.32Z"/>
        <path class="cls-2" d="M1063.71,215.47v-74.34l-1.46-11.85h64.82c6.24,0,11.14.83,14.71,2.49,3.56,1.66,6.19,3.83,7.9,6.51,1.71,2.68,2.8,5.54,3.29,8.56.49,3.02.73,5.9.73,8.63v8.63c0,2.25-.34,4.76-1.02,7.54-.68,2.78-1.95,5.46-3.8,8.05-1.85,2.59-4.54,4.73-8.05,6.44-3.51,1.71-8.1,2.56-13.75,2.56h-14.93c-6.15,0-11.88-.15-17.19-.44-5.32-.29-9.29-.54-11.93-.73v27.95h-19.32ZM1083.03,174.64h39.8c4.39,0,7.41-1.07,9.07-3.22,1.66-2.14,2.49-4.73,2.49-7.76v-9.22c0-3.12-.83-5.75-2.49-7.9-1.66-2.14-4.63-3.22-8.93-3.22h-39.95v31.32Z"/>
      </g>
    </g>
  </g>
</svg>

